<svg xmlns="http://www.w3.org/2000/svg" width="1400" height="900" viewBox="0 0 1400 900" role="img" aria-labelledby="title desc">
  <title id="title">Attention as differentiable lookup</title>
  <desc id="desc">A minimal sketch-style diagram showing the token it querying animal, street, and tired, then mixing the useful values into a new meaning.</desc>
  <defs>
    <style>
      .ink { stroke: #222222; stroke-width: 4.5; stroke-linecap: round; stroke-linejoin: round; fill: none; }
      .ink-soft { stroke: #222222; stroke-width: 3.5; stroke-linecap: round; stroke-linejoin: round; fill: none; }
      .label { fill: #222222; font-family: "Comic Sans MS", "Chalkboard SE", "Marker Felt", cursive, sans-serif; }
      .title { font-size: 42px; font-weight: 700; }
      .subtitle { font-size: 24px; }
      .boxtext { font-size: 28px; font-weight: 700; }
      .small { font-size: 24px; }
      .tiny { font-size: 22px; }
      .good { fill: #baf3bd; stroke: #222222; stroke-width: 4; }
      .soft { fill: #ebf9ee; stroke: #222222; stroke-width: 4; }
      .bad { fill: #ffffff; stroke: #222222; stroke-width: 4; }
      .pill { fill: #ffffff; stroke: #222222; stroke-width: 4; }
      .note { fill: #f6f6f4; stroke: #222222; stroke-width: 4; }
    </style>
    <marker id="arrow" viewBox="0 0 12 12" refX="10" refY="6" markerWidth="8" markerHeight="8" orient="auto-start-reverse">
      <path d="M 0 0 L 12 6 L 0 12" fill="none" stroke="#222222" stroke-width="2.5" stroke-linecap="round" stroke-linejoin="round" />
    </marker>
  </defs>

  <rect width="1400" height="900" fill="#fcfcfa" />

  <text x="84" y="92" class="label title">Attention = look up what matters</text>
  <text x="84" y="132" class="label subtitle">Simple version: the token "it" asks who matters most, then mixes the useful info back in.</text>

  <rect x="120" y="262" width="210" height="88" rx="20" class="pill" />
  <text x="225" y="318" text-anchor="middle" class="label boxtext">token: it</text>

  <rect x="120" y="392" width="250" height="94" rx="22" class="note" />
  <text x="245" y="448" text-anchor="middle" class="label boxtext">query</text>
  <text x="245" y="478" text-anchor="middle" class="label tiny">"who does it refer to?"</text>

  <path d="M 330 308 C 420 250, 470 220, 560 200" class="ink" marker-end="url(#arrow)" />
  <path d="M 330 308 C 430 308, 470 308, 560 308" class="ink" marker-end="url(#arrow)" />
  <path d="M 330 308 C 420 366, 470 394, 560 416" class="ink-soft" marker-end="url(#arrow)" stroke-dasharray="10 12" />

  <text x="440" y="222" class="label small">high match</text>
  <text x="446" y="290" class="label small">highest match</text>
  <text x="446" y="402" class="label small">small match</text>

  <circle cx="620" cy="196" r="34" class="soft" />
  <text x="690" y="206" class="label boxtext">tired</text>
  <text x="690" y="238" class="label tiny">useful clue</text>
  <text x="645" y="210" class="label boxtext" fill="#2f9e44"> </text>
  <path d="M 737 185 l 16 16 l 28 -38" stroke="#2f9e44" stroke-width="8" fill="none" stroke-linecap="round" stroke-linejoin="round" />

  <circle cx="620" cy="308" r="34" class="good" />
  <text x="690" y="318" class="label boxtext">animal</text>
  <text x="690" y="350" class="label tiny">best antecedent</text>
  <path d="M 737 297 l 16 16 l 28 -38" stroke="#2f9e44" stroke-width="8" fill="none" stroke-linecap="round" stroke-linejoin="round" />

  <circle cx="620" cy="420" r="34" class="bad" />
  <text x="690" y="430" class="label boxtext">street</text>
  <text x="690" y="462" class="label tiny">weak fit</text>
  <path d="M 741 397 l 30 42 M 771 397 l -30 42" stroke="#e03131" stroke-width="8" fill="none" stroke-linecap="round" />

  <text x="160" y="610" class="label title">Keys choose where to look</text>
  <text x="160" y="650" class="label subtitle">Values choose what comes back</text>

  <path d="M 850 210 C 930 240, 966 274, 1028 324" class="ink" marker-end="url(#arrow)" />
  <path d="M 850 318 C 942 320, 980 336, 1028 356" class="ink" marker-end="url(#arrow)" />
  <path d="M 850 430 C 936 410, 972 400, 1028 382" class="ink-soft" marker-end="url(#arrow)" stroke-dasharray="10 12" />

  <rect x="1036" y="250" width="264" height="214" rx="26" class="note" />
  <text x="1168" y="308" text-anchor="middle" class="label boxtext">new meaning of "it"</text>
  <text x="1168" y="356" text-anchor="middle" class="label small">mostly animal</text>
  <text x="1168" y="392" text-anchor="middle" class="label small">+ some tired</text>
  <text x="1168" y="428" text-anchor="middle" class="label small">+ almost no street</text>

  <text x="972" y="560" class="label title">Not a hard pointer</text>
  <text x="972" y="600" class="label subtitle">It is a weighted mix of useful signals.</text>
</svg>
