<svg xmlns="http://www.w3.org/2000/svg" width="960" height="360" viewBox="0 0 960 360" role="img" aria-labelledby="title desc">
  <title id="title">GAN generator discriminator game</title>
  <desc id="desc">A schematic showing noise feeding a generator, generated samples and real data feeding a discriminator, and gradients pushing the generator to fool the discriminator.</desc>
  <rect width="960" height="360" rx="24" fill="#12110e"/>
  <g fill="none" stroke="#f6c35b" stroke-width="2">
    <rect x="54" y="80" width="150" height="86" rx="14"/>
    <rect x="300" y="80" width="170" height="86" rx="14"/>
    <rect x="300" y="216" width="170" height="86" rx="14"/>
    <rect x="616" y="138" width="200" height="100" rx="14"/>
  </g>
  <g fill="#ffe4a8" font-family="ui-monospace, SFMono-Regular, Menlo, Consolas, monospace">
    <text x="92" y="130" font-size="22">noise z</text>
    <text x="332" y="130" font-size="22">generator</text>
    <text x="348" y="268" font-size="22">real data</text>
    <text x="648" y="182" font-size="22">discriminator</text>
    <text x="656" y="214" font-size="18">real or fake?</text>
  </g>
  <g stroke="#f6c35b" stroke-width="3" fill="none" stroke-linecap="round" stroke-linejoin="round">
    <path d="M214 123 H288"/>
    <path d="M478 123 C548 123 574 160 604 176"/>
    <path d="M478 260 C548 260 574 216 604 198"/>
    <path d="M714 132 C700 72 388 48 384 76"/>
    <path d="M278 113 L292 123 L278 133"/>
    <path d="M594 166 L608 176 L594 186"/>
    <path d="M594 188 L608 198 L594 208"/>
  </g>
  <g fill="#c8ad72" font-family="ui-monospace, SFMono-Regular, Menlo, Consolas, monospace" font-size="15">
    <text x="54" y="44">GAN pattern: train a generator by making a discriminator's classification task harder.</text>
    <text x="520" y="72">gradient signal back to G</text>
  </g>
</svg>
