<svg xmlns="http://www.w3.org/2000/svg" width="960" height="360" viewBox="0 0 960 360" role="img" aria-labelledby="title desc">
  <title id="title">Vision-language model stack</title>
  <desc id="desc">A schematic showing an image encoder and text encoder or language model joined by a connector, then trained with contrastive, instruction, or post-training data.</desc>
  <rect width="960" height="360" rx="24" fill="#10120f"/>
  <g fill="none" stroke="#f4df6a" stroke-width="2">
    <rect x="52" y="76" width="190" height="92" rx="14"/>
    <rect x="52" y="196" width="190" height="92" rx="14"/>
    <rect x="342" y="118" width="150" height="124" rx="14"/>
    <rect x="592" y="78" width="250" height="210" rx="14"/>
  </g>
  <g fill="#fff2a8" font-family="ui-monospace, SFMono-Regular, Menlo, Consolas, monospace">
    <text x="86" y="118" font-size="22">image</text>
    <text x="86" y="146" font-size="22">encoder</text>
    <text x="86" y="238" font-size="22">text or</text>
    <text x="86" y="266" font-size="22">instruction</text>
    <text x="372" y="166" font-size="22">projector</text>
    <text x="378" y="198" font-size="22">/ loss</text>
    <text x="636" y="124" font-size="22">shared space</text>
    <text x="636" y="158" font-size="22">or LLM tokens</text>
    <text x="636" y="214" font-size="18">retrieval</text>
    <text x="636" y="242" font-size="18">visual chat</text>
    <text x="636" y="270" font-size="18">reasoning</text>
  </g>
  <g stroke="#f4df6a" stroke-width="3" fill="none" stroke-linecap="round" stroke-linejoin="round">
    <path d="M250 122 H330"/>
    <path d="M250 242 H330"/>
    <path d="M500 180 H580"/>
    <path d="M320 112 L334 122 L320 132"/>
    <path d="M320 232 L334 242 L320 252"/>
    <path d="M570 170 L584 180 L570 190"/>
  </g>
  <g fill="#c9c08a" font-family="ui-monospace, SFMono-Regular, Menlo, Consolas, monospace" font-size="15">
    <text x="52" y="42">VLM pattern: preserve visual evidence, align it with language, then tune the interface.</text>
    <text x="342" y="282">CLIP/SigLIP: loss</text>
    <text x="342" y="306">LLaVA: connector</text>
    <text x="342" y="330">Qwen/Molmo/etc.: data + tokens</text>
  </g>
</svg>
